<?xml version="1.0" encoding="utf-8"?>
<!-- Generator: Adobe Illustrator 25.3.0, SVG Export Plug-In . SVG Version: 6.00 Build 0)  -->
<svg version="1.1" id="Layer_1" xmlns="http://www.w3.org/2000/svg" xmlns:xlink="http://www.w3.org/1999/xlink" x="0px" y="0px"
	 viewBox="0 0 363.6 147.7" style="enable-background:new 0 0 363.6 147.7;" xml:space="preserve">
<path id="_252131128" style="fill-rule:evenodd;clip-rule:evenodd;fill:#F4EA2B;" d="M298.5,117.7l-40.9-0.2
	c1.2-3.4,11.4-6.5,11.6-19.5c0.1-9.5-6.9-16.8-11.9-19.9c-8.3-5.1-17.3-3.7-27.7-3.8l-31.5,0l0.2,69.7l27.7,0.1l0.1-17.9
	c2.7,1.5,8.6,8,11.8,10.7c4.1,3.5,8.1,6.8,16,7c9.6,0.3,59.4,1.9,66.8-2c9.9-5.2,16.1-18.3,6.7-30.5l-9.9-13.1l32.6-0.1l0.1-24.5
	c-10.1-0.3-20.7,0-30.8,0c-10.5,0-19.5-1.2-27.1,4.4c-5.6,4.1-9.4,13.3-6.5,22C288.2,107.7,297.3,113.7,298.5,117.7L298.5,117.7z"/>
<path id="_252131560" style="fill-rule:evenodd;clip-rule:evenodd;fill:#000002;" d="M250.7,115.6c4.9-3.6,11.1-5.1,13.7-14.2
	c2.6-8.9-4.3-15.7-8.3-18.7c-7.1-5.3-14.9-4-24.5-4l-29.1,0l0.3,61l18.8-0.1l0.2-23.3c3.5,1.8,19.1,18.9,25.5,22.2
	c4.1,2.1,39,1.3,46.4,1.3c12.2-0.1,31.2,2.8,33.8-13.9c1.2-8-4.5-13.8-9.3-19.4c-5.2-6-11.4-12.9,0.4-12.9c9,0,18,0,27,0l-0.1-15.5
	c-5.6-0.8-37.3-0.7-42.9,0.1c-12.7,1.9-17.9,15.5-9.5,26.2c2.2,2.8,8.7,8.7,9.9,11.7c3.2,7.9-10.4,6.2-15.3,6.2
	c-7.2,0-14.4,0-21.6-0.1C259.9,122.2,253.3,122.5,250.7,115.6L250.7,115.6z"/>
<path id="_252131176" style="fill-rule:evenodd;clip-rule:evenodd;fill:#F4EA2B;" d="M253.9,70l28.3,0.2l-0.1-17.3l20.6,16
	c1.7,1.3,1.1,1.1,3.4,1.1c8.6,0.1,40.8,0.2,44.2,0.2l-0.9-25.4l-36.4-0.9c1.7-3,11.6-6.8,11.9-19.8c0.2-10.2-4.8-16.6-11-20.3
	c-7.4-4.4-18.6-3.4-28.1-3.5l-31.9,0.1L253.9,70L253.9,70z"/>
<path id="_252131680" style="fill-rule:evenodd;clip-rule:evenodd;fill:#F4EA2B;" d="M38.2,143.6l18.2,0l10.5-28l10.1,28.5l17.8-0.1
	c2.3-4.3,21.1-60.9,24.1-70l-26.7,0.1l-6.3,18l-6.3-18.3L53.9,74l-6.6,18l-6.6-18.1L14.5,74L38.2,143.6L38.2,143.6z"/>
<path id="_252130432" style="fill-rule:evenodd;clip-rule:evenodd;fill:#000002;" d="M70.3,48.4c-2.7,0.8-48.2,0.8-52.6,0.2
	l0.1,17.3c12.7-0.2,60.4,1.6,68.8-1.1c7.7-2.4,14.3-13.5,7.8-22.6c-9.9-13.9-5.6-3.7-11.7-21.7l39.6-1.2l0,46.5l18-0.2l0-46.4
	l30.4,0L171,4.2C142.2,4,113.3,4.3,84.5,4.3c-7.4,0-13.3-0.7-18.7,3c-5.1,3.5-10.6,13.5-3.7,22.2C67.7,36.7,78.1,44.6,70.3,48.4
	L70.3,48.4z"/>
<path id="_252130648" style="fill-rule:evenodd;clip-rule:evenodd;fill:#F4EA2B;" d="M164.1,70.1L191,70l2.5-8.8l24.9,0.2l2.6,9.2
	l26.6,0.2c-3.7-14.7-15.6-44-21.2-61.9l-3.4-8.6l-34.7,0.1C186.8,2.8,165.6,64,164.1,70.1L164.1,70.1z"/>
<polygon id="_252130576" style="fill-rule:evenodd;clip-rule:evenodd;fill:#F4EA2B;" points="107.6,143.2 134.2,143.3 137,134.2 
	161.3,134.4 164.9,143.7 190.9,143.5 166.6,73.4 131.7,73.4 "/>
<path id="_252130624" style="fill-rule:evenodd;clip-rule:evenodd;fill:#000002;" d="M258.2,65.8l19.6-0.1l-0.1-22.9
	c5.5,2.7,25.1,21.7,29.6,23l38.7-0.1l-0.3-16.4c-5.8-0.9-16.2-0.4-22.5-0.5c-6-0.1-14.7,1-16.7-6.3c0.9-1.3,2.1-1.8,4-2.9
	c1.9-1.1,2.5-1.5,4.1-3c11.8-11.1,4.5-30.4-9.3-31.3c-13.6-0.9-37.5-0.5-47.1-0.5L258.2,65.8L258.2,65.8z"/>
<path id="_252130288" style="fill-rule:evenodd;clip-rule:evenodd;fill:#000002;" d="M41.3,139.3l12.1,0.1L67.1,103l12.8,36.8l12,0
	l20.9-61.4l-17.2,0c-2,5.2-6.6,21.9-9.9,26.2l-9-26.4l-19.8,0c-1,4.1-2.9,9-4.4,13.2c-0.8,2.3-1.5,4.3-2.4,6.8l-1.7,4.8
	c-0.5,0.9,0.4-0.6-0.5,0.9l-0.7,0.8l-9.7-26.5l-16.8,0.1L41.3,139.3L41.3,139.3z"/>
<polygon id="_252130240" style="fill-rule:evenodd;clip-rule:evenodd;fill:#000002;" points="170.1,65.7 187.7,65.8 190.5,56.9 
	221.6,57.1 224.6,66.3 241.4,66.4 220.3,4.7 191.2,4.7 "/>
<polygon id="_252129928" style="fill-rule:evenodd;clip-rule:evenodd;fill:#000002;" points="113.7,138.9 130.9,139.1 133.4,129.8 
	164.9,130.1 167.7,139.4 185.1,139.1 163.7,77.8 134.8,77.8 "/>
<path id="_252129712" style="fill-rule:evenodd;clip-rule:evenodd;fill:#F4EA2B;" d="M13.2,70V44.4l1.8,0.3l53.7-0.2L58.4,31.9
	c-8-10.3-2.8-24.5,7.5-29.7c6-3,12.8-2.2,20-2.2c15,0,30.1-0.1,45.1-0.1c13.8,0,30.9-0.9,44.4,0.1l0,23.6L145,23.7l-0.1,46.5
	l-26.8,0l0-46.3l-31.5-0.1c1.3,2.8,2.7,5.4,4.8,8.2c4.6,6.2,10.1,12.5,10.1,17.6c-0.1,6.4-2.9,11.5-6.3,14.7
	c-4.3,4.3-6.7,4.9-14.1,5.6L13.2,70L13.2,70z M70.3,48.4c7.8-3.7-2.7-11.6-8.3-18.8c-6.9-8.7-1.4-18.7,3.7-22.2
	c5.5-3.7,11.3-3,18.7-3C113.3,4.3,142.2,4,171,4.2l-0.1,15.1l-30.4,0l0,46.4l-18,0.2l0-46.5l-28.8,0c-6.5,0-11.2-0.4-12.4,1.6
	c-1,1.5,0,4.4,4.5,10.6C91.1,38.7,100,45,96.2,55.2c-1.7,4.6-5.4,8.3-9.5,9.5c-8.5,2.6-56.1,0.8-68.8,1.1l-0.1-17.3
	C22.1,49.2,67.6,49.2,70.3,48.4L70.3,48.4z"/>
<path id="_252129856" style="fill-rule:evenodd;clip-rule:evenodd;fill:#F4EA2B;" d="M277.5,32c4.4,0.6,11.6,0.3,16.3,0.2
	c13.5-0.1,12.2-14.9,0.6-15.2l-16.9,0L277.5,32L277.5,32z"/>
<path id="_252129808" style="fill-rule:evenodd;clip-rule:evenodd;fill:#F4EA2B;" d="M195.6,43.8l21,0l-10.4-30.1
	c-1.8,4.7-3.7,9.9-5.4,14.9C199.2,33.1,196.7,39.2,195.6,43.8L195.6,43.8z"/>
<path id="_252129520" style="fill-rule:evenodd;clip-rule:evenodd;fill:#F4EA2B;" d="M138.9,116.7l21-0.1l-10-29
	c-0.3,0.4,0-0.2-0.8,1.2c-0.3,0.6-0.6,1.2-0.8,1.8l-4,11.1C142.5,106.5,140.3,111.6,138.9,116.7L138.9,116.7z"/>
<path id="_252129688" style="fill-rule:evenodd;clip-rule:evenodd;fill:#F4EA2B;" d="M247.5,98c-0.3-4.6-4.1-7-8.2-7.4
	c-5.8-0.6-11.7-0.5-17.7,0.2l0.2,14.9c2.6,0.2,7.3,0.6,11.6,0.6C240.8,106.4,248,105.3,247.5,98L247.5,98z"/>
<path id="_252129352" style="fill-rule:evenodd;clip-rule:evenodd;fill:#000002;" d="M281.9,27.9c4-0.1,17,2,17-3.2
	c0-5.4-13.1-3.5-17.1-3.5L281.9,27.9L281.9,27.9z"/>
<path id="_252129280" style="fill-rule:evenodd;clip-rule:evenodd;fill:#000002;" d="M226,101.6c3.9,0.2,9.4,0.8,13.1,0.3
	c4.7-0.7,6.9-6.2-1.7-6.7c-4.1-0.3-9.1-0.1-11.4,0.3L226,101.6L226,101.6z"/>
<path id="_252129064" style="fill-rule:evenodd;clip-rule:evenodd;fill:#000002;" d="M201.7,39.4l2.5,0.1l6.3,0
	c-0.3-3.2-2.7-10.4-4.4-12.8L201.7,39.4L201.7,39.4z"/>
<polygon id="_252128896" style="fill-rule:evenodd;clip-rule:evenodd;fill:#000002;" points="145,112.2 153.8,112.1 149.5,100.1 "/>
</svg>
